<svg fill="#bcbcbc" class="" xmlns="http://www.w3.org/2000/svg" width="682.667" height="682.667" viewBox="0 0 512 512"
     preserveAspectRatio="xMidYMid meet">
    <path d="M157 50.5c-3 .8-9.3 3.4-14 5.7-11.5 5.6-23 16.9-28.3 27.8-3 6-9.5 27.6-14 46.1-.5 1.9 3.2-1.3 13.6-11.6 20.6-20.6 40.2-33.7 65.5-44 11.3-4.6 33.4-10.8 43-12.1 2.9-.4 5.1-.9 4.8-1.1-.2-.2-9.6-2.9-20.8-6-18.2-4.9-21.6-5.5-32.3-5.9-8.6-.3-13.6 0-17.5 1.1zm81.8 26.6c-20.8 2-41.3 7.8-60.8 17-55 26.2-92.5 76.6-101.5 136.5-1.9 12.8-1.9 39 0 51.8 9 59.9 46.5 110.3 101.5 136.5 58.5 27.8 126.6 22.8 180.5-13.4 40.6-27.2 67.2-67.6 77.2-117 2.6-12.9 2.6-51.1 0-64-10-49.4-36.6-89.8-77.2-117-35.3-23.7-77.7-34.4-119.7-30.4zm-23.6 49c28.1 5.8 46.4 34.9 39.3 62.4-10 38.4-58.3 51.5-86.4 23.4-20.2-20.2-20.1-51.1.3-71.5 12.9-12.8 29.5-17.9 46.8-14.3zm132.1 25.4c23.2 6 38.7 25.6 38.7 48.9 0 15.1-4.3 25.9-14.5 36.1-7 7-15.5 11.8-24.6 14-12.6 2.9-23.2 1.6-35.5-4.5-20-9.8-31.5-32.8-27.1-54.1 2.3-11.2 6.1-18.3 14.2-26.5 10.5-10.5 21.3-15.1 36-15.3 3.9-.1 9.7.6 12.8 1.4zm-81.6 86.4c7.6 3.9 12.3 11.2 12.3 19.2 0 17.3-16.8 27.9-32.5 20.5-5.9-2.7-7.7-4.6-10.4-10.6-8.8-19.3 11.8-38.8 30.6-29.1zM188.1 262c3 .5 9.1 2.8 13.5 5 20 9.8 31.5 32.8 27.1 54.1-2.3 11.2-6.1 18.3-14.2 26.5-16.4 16.5-39.3 20.1-60.3 9.5-26.9-13.6-35.8-48.9-18.6-73.9 11.5-16.5 32.2-24.9 52.5-21.2zm133.3 25.6c26.3 6.8 43 33.3 37.5 59.6-2.9 13.7-14.8 29.3-26.9 35.1-20.7 10-44.2 6.3-59.7-9.2-20.3-20.2-20.4-52-.3-72.1 12.8-12.7 31.9-17.9 49.4-13.4zM377 100.8c0 .4 2 2.2 4.5 4 11.4 8.6 28.9 27.9 39.5 43.8 14.5 21.5 25.9 50.2 30 76.2.7 4 1.4 7.1 1.7 6.9.2-.3 3.3-11.4 6.9-24.8 5.6-21.4 6.4-25.5 6.4-33.4 0-17.7-6.5-33.2-19-45.6-10.1-9.9-19.1-14.4-40.5-19.9l-22.7-6c-3.8-1-6.8-1.6-6.8-1.2zM58 288.3c0 .4-2.5 10-5.5 21.4-4.7 17.9-5.5 22-5.5 29.8 0 17.7 6.5 33.2 18.9 45.5 10.7 10.5 17.9 14 44.3 21 11.7 3.1 21.5 5.5 21.7 5.4.2-.2-.9-1.4-2.5-2.6-5.6-4.3-23.7-22.4-29.7-29.8-18.3-22.5-32.5-52.3-38.7-80.6-1.8-8.5-3-12.4-3-10.1zm351.5 91.8c-2.2 2.9-8.1 9.4-13.1 14.5-27.2 27.3-62.9 46.7-100.4 54.4-5.7 1.1-10.6 2.3-10.8 2.5-.4.4-.5.4 22.8 6.6 30.7 8.2 43.1 8 61.8-1.2 13.8-6.8 26.1-19.9 31.1-33.5 2.6-6.7 13.3-46.4 12.9-47.6-.2-.5-2.1 1.5-4.3 4.3z"></path>
</svg>